<svg width="60" height="60" viewBox="0 0 60 60" fill="none" xmlns="http://www.w3.org/2000/svg">
<path d="M30 18C30 24.6274 24.6274 30 18 30C11.3726 30 6 24.6274 6 18C6 11.3726 11.3726 6 18 6C24.6274 6 30 11.3726 30 18Z" fill="#404040"/>
<path d="M54 18C54 24.6274 48.6274 30 42 30C35.3726 30 30 24.6274 30 18C30 11.3726 35.3726 6 42 6C48.6274 6 54 11.3726 54 18Z" fill="#FFD11A"/>
<path d="M54 42C54 48.6274 48.6274 54 42 54C35.3726 54 30 48.6274 30 42C30 35.3726 35.3726 30 42 30C48.6274 30 54 35.3726 54 42Z" fill="#404040"/>
<path d="M30 42C30 48.6274 24.6274 54 18 54C11.3726 54 6 48.6274 6 42C6 35.3726 11.3726 30 18 30C24.6274 30 30 35.3726 30 42Z" fill="#FFD11A"/>
</svg>
