<svg width="60" height="60" viewBox="0 0 60 60" fill="none" xmlns="http://www.w3.org/2000/svg">
<path d="M6 22.4997C6 29.1555 9.94088 34.8908 15.6165 37.4997H6C6 46.6124 13.3873 53.9997 22.5 53.9997C29.1558 53.9997 34.8912 50.0588 37.5 44.3831V53.9997C46.6127 53.9997 54 46.6124 54 37.4997C54 30.8439 50.0591 25.1085 44.3835 22.4997H54C54 13.387 46.6127 5.99966 37.5 5.99966C30.8442 5.99966 25.1088 9.94054 22.5 15.6162V5.99966C13.3873 5.99966 6 13.387 6 22.4997Z" fill="#404040"/>
<path d="M37.5 29.9998C37.5 34.1419 34.1421 37.4998 30 37.4998C25.8579 37.4998 22.5 34.1419 22.5 29.9998C22.5 25.8577 25.8579 22.4998 30 22.4998C34.1421 22.4998 37.5 25.8577 37.5 29.9998Z" fill="#FFD11A"/>
</svg>
